#!OML:ASF X:\für Bonn\!DataBase\2005_08_11_Bastian_Final\c3d\Bastian.ASF
:FULLY-SPECIFIED
:DEGREES
33
root 3.50265 21.6768 7.62945 1074.72 0.0218129 -4.05064
lowerback 1.92795 -1.55958 0.234089
upperback 4.42882 -2.08364 -0.0520801
thorax 3.46155 -1.03301 -0.207957
lowerneck -14.7814 -3.56242 -8.94896
upperneck 6.31008 -4.01887 9.52731
head 4.6743 -1.61858 4.09766
rclavicle 1.44119e-015 7.95139e-016
rhumerus -55.3154 9.31537 -93.3156
rradius 55.4926
rwrist -3.02627
rhand -23.5604 15.7485
rfingers 7.12502
rthumb 2.90186 -14.2115
lclavicle 1.44119e-015 7.95139e-016
lhumerus -39.3738 -9.90128 83.6924
lradius 71.8931
lwrist -160.206
lhand -22.6895 2.60825
lfingers 7.12502
lthumb 3.74293 32.5551
rfemur -3.12449 -5.0886 28.0307
rtibia 52.495
rfoot 15.0348 -9.46677
rtoes -7.26758
lfemur -8.37439 -0.639155 -15.7878
ltibia 59.2627
lfoot 20.8049 -4.56014
ltoes -32.9526
34
root 3.49923 21.7862 7.82898 1075.11 -0.429183 -3.86548
lowerback 2.16286 -1.4229 0.198224
upperback 4.40562 -1.89847 -0.118562
thorax 3.30472 -0.940973 -0.2472
lowerneck -15.018 -3.6243 -9.12328
upperneck 6.44478 -4.07174 9.65994
head 4.7661 -1.63431 4.163
rclavicle 5.81445e-015 -3.18055e-015
rhumerus -55.1851 9.48305 -93.3482
rradius 55.3081
rwrist -3.13269
rhand -23.1795 15.8197
rfingers 7.12502
rthumb 3.26974 -14.135
lclavicle 5.81445e-015 -3.18055e-015
lhumerus -39.5549 -9.45498 83.63
lradius 71.9684
lwrist -160.523
lhand -22.9336 2.8212
lfingers 7.12502
lthumb 3.50719 32.7721
rfemur -4.36873 -5.24175 27.5868
rtibia 53.3321
rfoot 14.2982 -10.2611
rtoes -7.53884
lfemur -9.22163 -0.20596 -15.9009
ltibia 58.8579
lfoot 21.0347 -5.12863
ltoes -31.9823
35
root 3.49976 21.8576 8.01902 1075.57 -0.934741 -3.74473
lowerback 2.35505 -1.28273 0.273236
upperback 4.36914 -1.70885 -0.191424
thorax 3.15516 -0.843002 -0.35712
lowerneck -15.2618 -3.68492 -9.27926
upperneck 6.58712 -4.12548 9.78821
head 4.8613 -1.64992 4.22395
rclavicle -4.12478e-015 -8.74653e-015
rhumerus -54.9773 9.68139 -93.4225
rradius 55.1253
rwrist -3.25433
rhand -22.6279 15.7831
rfingers 7.12502
rthumb 3.80248 -14.1627
lclavicle -4.12478e-015 -8.74653e-015
lhumerus -39.7679 -8.98346 83.5184
lradius 72.0196
lwrist -160.771
lhand -23.1421 3.18459
lfingers 7.12502
lthumb 3.30589 33.1387
rfemur -5.74782 -5.24875 27.2673
rtibia 54.0917
rfoot 13.6151 -10.9126
rtoes -8.23753
lfemur -10.0921 0.213905 -15.9693
ltibia 58.2407
lfoot 21.2608 -5.6797
ltoes -30.6736
36
root 3.4997 21.9235 8.21163 1075.95 -1.4812 -3.65306
lowerback 2.64863 -1.11787 0.366637
upperback 4.35519 -1.48586 -0.263346
thorax 2.97303 -0.728073 -0.475643
lowerneck -15.4955 -3.75058 -9.39608
upperneck 6.70674 -4.19246 9.91189
head 4.94852 -1.67144 4.27579
rclavicle -9.0447e-015 4.77083e-015
rhumerus -54.7449 9.87096 -93.5389
rradius 54.9801
rwrist -3.46469
rhand -22.1346 15.7018
rfingers 7.12502
rthumb 4.2788 -14.2349
lclavicle -9.0447e-015 4.77083e-015
lhumerus -39.9524 -8.57729 83.4119
lradius 71.973
lwrist -160.941
lhand -23.2403 3.60303
lfingers 7.12502
lthumb 3.21102 33.5586
rfemur -6.96729 -5.15124 27.0092
rtibia 54.6411
rfoot 12.9546 -11.3486
rtoes -9.18812
lfemur -10.7336 0.618982 -16.0077
ltibia 57.3432
lfoot 21.3442 -6.2443
ltoes -29.4519
37
root 3.49824 21.976 8.40679 1076.19 -2.0644 -3.6495
lowerback 3.09409 -0.951246 0.516767
upperback 4.39199 -1.26006 -0.291646
thorax 2.75968 -0.611064 -0.580937
lowerneck -15.7561 -3.81671 -9.52646
upperneck 6.83674 -4.25074 9.9964
head 5.04185 -1.69072 4.31801
rclavicle 5.81445e-015 -1.27222e-014
rhumerus -54.5557 10.1671 -93.6345
rradius 54.8956
rwrist -3.6815
rhand -21.6655 15.6221
rfingers 7.12502
rthumb 4.7318 -14.305
lclavicle 5.81445e-015 -1.27222e-014
lhumerus -40.1391 -8.12187 83.33
lradius 71.8545
lwrist -160.999
lhand -23.2972 3.98108
lfingers 7.12502
lthumb 3.15606 33.9375
rfemur -7.94436 -4.95206 26.8832
rtibia 54.9779
rfoot 12.3514 -11.4465
rtoes -10.1897
lfemur -11.1125 1.01897 -15.9421
ltibia 56.2723
lfoot 21.1499 -6.88341
ltoes -29.0571
